<svg xmlns="http://www.w3.org/2000/svg" width="195" height="40" viewBox="0 0 195 40" fill="none"><path d="M20.0002 38C10.075 38 2.00049 29.9249 2.00049 19.9997C2.00049 10.0745 10.075 2 20.0002 2C29.9254 2 37.9998 10.0745 37.9998 19.9997C37.9998 29.9249 29.9254 38 20.0002 38ZM20.0002 3.33888C10.8137 3.33888 3.33937 10.8132 3.33937 19.9997C3.33937 29.1869 10.8137 36.6611 20.0002 36.6611C29.1866 36.6611 36.661 29.1869 36.661 19.9997C36.661 10.8132 29.1866 3.33888 20.0002 3.33888Z" fill="white"></path><path d="M12.7617 24.7878C9.3896 24.7878 6.64648 22.0446 6.64648 18.6732C6.64648 15.3011 9.3896 12.5581 12.7617 12.5581C16.133 12.5581 18.8762 15.3012 18.8762 18.6732C18.8762 22.0446 16.1331 24.7878 12.7617 24.7878ZM12.7617 13.897C10.1277 13.897 7.98536 16.0393 7.98536 18.6732C7.98536 21.3066 10.1277 23.4489 12.7617 23.4489C15.395 23.4489 17.5373 21.3066 17.5373 18.6732C17.5373 16.0393 15.395 13.897 12.7617 13.897Z" fill="white"></path><path d="M27.2385 24.7878C23.8671 24.7878 21.124 22.0446 21.124 18.6732C21.124 15.3011 23.8671 12.5581 27.2385 12.5581C30.6106 12.5581 33.3537 15.3012 33.3537 18.6732C33.3537 22.0446 30.6105 24.7878 27.2385 24.7878ZM27.2385 13.897C24.6052 13.897 22.4629 16.0393 22.4629 18.6732C22.4629 21.3066 24.6052 23.4489 27.2385 23.4489C29.8725 23.4489 32.0148 21.3066 32.0148 18.6732C32.0148 16.0393 29.8725 13.897 27.2385 13.897Z" fill="white"></path><path d="M27.2384 21.5131C25.6727 21.5131 24.3984 20.239 24.3984 18.6732C24.3984 17.1069 25.6726 15.8327 27.2384 15.8327C28.8048 15.8327 30.0789 17.1069 30.0789 18.6732C30.0789 20.239 28.8048 21.5131 27.2384 21.5131ZM27.2384 17.1716C26.4108 17.1716 25.7373 17.845 25.7373 18.6732C25.7373 19.5009 26.4107 20.1742 27.2384 20.1742C28.0667 20.1742 28.74 19.5009 28.74 18.6732C28.74 17.845 28.0666 17.1716 27.2384 17.1716Z" fill="white"></path><path d="M12.7619 21.5131C11.1955 21.5131 9.92139 20.239 9.92139 18.6732C9.92139 17.1069 11.1955 15.8327 12.7619 15.8327C14.3276 15.8327 15.6018 17.1069 15.6018 18.6732C15.6018 20.239 14.3276 21.5131 12.7619 21.5131ZM12.7619 17.1716C11.9336 17.1716 11.2603 17.845 11.2603 18.6732C11.2603 19.5009 11.9336 20.1742 12.7619 20.1742C13.5895 20.1742 14.263 19.5009 14.263 18.6732C14.263 17.845 13.5896 17.1716 12.7619 17.1716Z" fill="white"></path><path d="M20 13.7198C19.7549 13.7198 19.5287 13.5858 19.4117 13.37L19.2587 13.0882C18.1048 10.9655 15.8874 9.64696 13.4718 9.64696H11.0118C8.26345 9.64696 5.72161 8.276 4.21145 5.98072C4.00809 5.67152 4.09377 5.25632 4.40233 5.05368C4.71353 4.84904 5.12673 4.936 5.32937 5.24456C6.59177 7.16264 8.71577 8.30808 11.0118 8.30808H13.4718C16.0992 8.30808 18.5311 9.60448 20.0001 11.7396C21.4691 9.6044 23.9011 8.30808 26.5285 8.30808H28.9885C31.2845 8.30808 33.4085 7.16272 34.6709 5.24456C34.8736 4.936 35.2887 4.84904 35.5979 5.05368C35.9065 5.25632 35.9921 5.67144 35.7888 5.98072C34.2787 8.276 31.7369 9.64696 28.9885 9.64696H26.5285C24.1129 9.64696 21.8954 10.9655 20.7415 13.0882L20.5886 13.37C20.4714 13.5858 20.2452 13.7198 20 13.7198Z" fill="white"></path><path d="M20.0003 28.2467C19.7892 28.2467 19.5911 28.1474 19.4643 27.9786L17.671 25.5827C17.5108 25.3682 17.4932 25.0793 17.6272 24.8472L19.4204 21.734C19.6584 21.3195 20.3423 21.3195 20.5802 21.734L22.3734 24.8472C22.5074 25.0793 22.4898 25.3682 22.3295 25.5827L20.5363 27.9786C20.4095 28.1474 20.2115 28.2467 20.0003 28.2467ZM19.0073 25.1336L20.0003 26.4601L20.9934 25.1336L20.0003 23.4097L19.0073 25.1336Z" fill="white"></path><path d="M53.5 27.18C52.78 27.18 52.14 27.0133 51.58 26.68C51.0333 26.3333 50.6067 25.86 50.3 25.26C49.9933 24.6467 49.84 23.9467 49.84 23.16V13.92C49.84 13.64 49.7933 13.4533 49.7 13.36C49.62 13.2667 49.44 13.1933 49.16 13.14L48.7 13.06C48.5267 13.02 48.44 12.94 48.44 12.82C48.44 12.6733 48.54 12.6 48.74 12.6H52.4C52.6 12.6 52.7 12.68 52.7 12.84C52.7 12.96 52.6267 13.0333 52.48 13.06L51.94 13.14C51.6733 13.18 51.4933 13.2533 51.4 13.36C51.3067 13.4667 51.26 13.66 51.26 13.94V23.18C51.26 24.1933 51.4867 24.98 51.94 25.54C52.3933 26.1 53.0267 26.38 53.84 26.38C54.6667 26.38 55.3067 26.1 55.76 25.54C56.2133 24.98 56.44 24.1933 56.44 23.18V14.34C56.44 13.62 56.2133 13.22 55.76 13.14L55.22 13.06C55.0733 13.0333 55 12.96 55 12.84C55 12.68 55.1 12.6 55.3 12.6H58.18C58.38 12.6 58.48 12.6733 58.48 12.82C58.48 12.94 58.3933 13.02 58.22 13.06L57.76 13.14C57.3067 13.22 57.08 13.6133 57.08 14.32V23.16C57.08 24.3733 56.7533 25.3467 56.1 26.08C55.4467 26.8133 54.58 27.18 53.5 27.18ZM68.5227 27.18C67.3627 27.18 66.6227 26.42 66.3027 24.9L65.8427 22.68C65.696 21.96 65.5293 21.4133 65.3427 21.04C65.1693 20.6667 64.9227 20.4133 64.6027 20.28C64.296 20.1467 63.8693 20.08 63.3227 20.08C63.136 20.08 62.9893 20.1333 62.8827 20.24C62.776 20.3333 62.7227 20.4533 62.7227 20.6V25.6C62.7227 25.88 62.776 26.0733 62.8827 26.18C62.9893 26.2733 63.2293 26.3533 63.6027 26.42L64.3427 26.54C64.4893 26.5667 64.5627 26.64 64.5627 26.76C64.5627 26.92 64.4627 27 64.2627 27H60.2027C60.0027 27 59.9027 26.9267 59.9027 26.78C59.9027 26.66 59.9893 26.58 60.1627 26.54L60.6227 26.46C60.9027 26.4067 61.0827 26.3333 61.1627 26.24C61.256 26.1467 61.3027 25.96 61.3027 25.68V13.92C61.3027 13.64 61.256 13.4533 61.1627 13.36C61.0827 13.2667 60.9027 13.1933 60.6227 13.14L60.1627 13.06C59.9893 13.02 59.9027 12.94 59.9027 12.82C59.9027 12.6733 60.0027 12.6 60.2027 12.6H64.2627C65.0493 12.6 65.7493 12.7533 66.3627 13.06C66.976 13.3667 67.456 13.7933 67.8027 14.34C68.1493 14.8733 68.3227 15.4933 68.3227 16.2C68.3227 17.04 68.0693 17.8 67.5627 18.48C67.056 19.1467 66.416 19.62 65.6427 19.9C65.5493 19.9267 65.496 19.9733 65.4827 20.04C65.4827 20.0933 65.5293 20.14 65.6227 20.18C66.0493 20.38 66.3827 20.66 66.6227 21.02C66.876 21.38 67.0693 21.86 67.2027 22.46L67.6427 24.5C67.7893 25.1933 67.9627 25.6867 68.1627 25.98C68.3627 26.2733 68.616 26.42 68.9227 26.42C69.0293 26.42 69.1227 26.4067 69.2027 26.38C69.296 26.34 69.4093 26.2733 69.5427 26.18C69.6493 26.1133 69.7493 26.1 69.8427 26.14C69.936 26.1667 69.9827 26.2333 69.9827 26.34C69.9827 26.5667 69.836 26.7667 69.5427 26.94C69.2493 27.1 68.9093 27.18 68.5227 27.18ZM64.0627 19.58C64.9693 19.58 65.656 19.28 66.1227 18.68C66.5893 18.0667 66.8227 17.2533 66.8227 16.24C66.8227 15.2533 66.5493 14.4867 66.0027 13.94C65.4693 13.38 64.7293 13.1 63.7827 13.1C63.076 13.1 62.7227 13.3667 62.7227 13.9V18.48C62.7227 19.2133 63.1693 19.58 64.0627 19.58ZM71.0222 27C70.8222 27 70.7222 26.9267 70.7222 26.78C70.7222 26.66 70.8089 26.58 70.9822 26.54L71.4422 26.46C71.7222 26.4067 71.9022 26.3333 71.9822 26.24C72.0755 26.1467 72.1222 25.96 72.1222 25.68V13.92C72.1222 13.64 72.0755 13.4533 71.9822 13.36C71.9022 13.2667 71.7222 13.1933 71.4422 13.14L70.9822 13.06C70.8089 13.02 70.7222 12.94 70.7222 12.82C70.7222 12.6733 70.8222 12.6 71.0222 12.6H75.0822C75.7489 12.6 76.3422 12.74 76.8622 13.02C77.3822 13.3 77.7889 13.68 78.0822 14.16C78.3889 14.64 78.5422 15.1867 78.5422 15.8C78.5422 16.4 78.3622 16.96 78.0022 17.48C77.6555 17.9867 77.1489 18.4133 76.4822 18.76C76.4022 18.8 76.3622 18.8533 76.3622 18.92C76.3622 18.9867 76.4089 19.0333 76.5022 19.06C77.4089 19.3667 78.1089 19.86 78.6022 20.54C79.0955 21.2067 79.3422 22 79.3422 22.92C79.3422 23.7067 79.1622 24.4133 78.8022 25.04C78.4422 25.6533 77.9422 26.1333 77.3022 26.48C76.6755 26.8267 75.9622 27 75.1622 27H71.0222ZM74.6022 18.78C75.3089 18.78 75.8955 18.5067 76.3622 17.96C76.8422 17.4 77.0822 16.7067 77.0822 15.88C77.0822 15.0533 76.8555 14.3867 76.4022 13.88C75.9489 13.36 75.3489 13.1 74.6022 13.1C73.8955 13.1 73.5422 13.3667 73.5422 13.9V17.68C73.5422 18.0667 73.6222 18.3467 73.7822 18.52C73.9555 18.6933 74.2289 18.78 74.6022 18.78ZM74.9022 26.5C75.7689 26.5 76.4755 26.1733 77.0222 25.52C77.5689 24.8533 77.8422 23.9667 77.8422 22.86C77.8422 21.7533 77.5622 20.88 77.0022 20.24C76.4555 19.6 75.7155 19.28 74.7822 19.28C73.9555 19.28 73.5422 19.6067 73.5422 20.26V25.12C73.5422 26.04 73.9955 26.5 74.9022 26.5ZM80.633 27C80.433 27 80.333 26.9333 80.333 26.8C80.333 26.6667 80.4263 26.58 80.613 26.54L80.913 26.48C81.1796 26.4267 81.3796 26.3 81.513 26.1C81.6463 25.8867 81.7596 25.5933 81.853 25.22L84.953 12.72C84.9796 12.5867 85.0196 12.5 85.073 12.46C85.1396 12.42 85.1996 12.4 85.253 12.4C85.3196 12.4 85.3796 12.42 85.433 12.46C85.4996 12.5 85.5463 12.5867 85.573 12.72L88.733 25.4C88.8263 25.7733 88.933 26.0333 89.053 26.18C89.173 26.3267 89.3596 26.4267 89.613 26.48L89.913 26.54C90.0996 26.58 90.193 26.6667 90.193 26.8C90.193 26.9333 90.093 27 89.893 27H86.473C86.2863 27 86.193 26.9267 86.193 26.78C86.193 26.6333 86.3063 26.5533 86.533 26.54L86.913 26.5C87.1396 26.4733 87.2796 26.4 87.333 26.28C87.3996 26.16 87.3996 25.9533 87.333 25.66L86.573 22.56C86.493 22.2133 86.273 22.04 85.913 22.04H83.813C83.4663 22.04 83.2463 22.2133 83.153 22.56L82.473 25.24C82.273 26 82.473 26.42 83.073 26.5L83.373 26.54C83.5996 26.58 83.713 26.66 83.713 26.78C83.713 26.9267 83.6196 27 83.433 27H80.633ZM83.753 21.44H85.953C86.1663 21.44 86.253 21.3267 86.213 21.1L84.933 15.74H84.833L83.493 21.1C83.453 21.3267 83.5396 21.44 83.753 21.44ZM99.0183 27.18C98.8049 27.18 98.6249 27.02 98.4783 26.7L93.0583 14.94C93.0183 14.8467 92.9649 14.8067 92.8983 14.82C92.8449 14.8333 92.8183 14.8933 92.8183 15V25.28C92.8183 25.6533 92.8783 25.94 92.9983 26.14C93.1316 26.3267 93.3649 26.4467 93.6983 26.5L93.9583 26.54C94.1316 26.5533 94.2183 26.6333 94.2183 26.78C94.2183 26.9267 94.1183 27 93.9183 27H91.0583C90.8583 27 90.7583 26.9267 90.7583 26.78C90.7583 26.6333 90.8449 26.5533 91.0183 26.54L91.2783 26.5C91.6249 26.4467 91.8649 26.3267 91.9983 26.14C92.1316 25.94 92.1983 25.6533 92.1983 25.28V13.92C92.1983 13.64 92.1516 13.4533 92.0583 13.36C91.9783 13.2667 91.7849 13.1933 91.4783 13.14L91.0183 13.06C90.8449 13.02 90.7583 12.94 90.7583 12.82C90.7583 12.6733 90.8583 12.6 91.0583 12.6H93.1983C93.5316 12.6 93.7649 12.7467 93.8983 13.04L98.6183 23.42C98.6583 23.5 98.7049 23.5333 98.7583 23.52C98.8249 23.5067 98.8583 23.46 98.8583 23.38V14.32C98.8583 13.8933 98.7849 13.6 98.6383 13.44C98.4916 13.2667 98.3049 13.16 98.0783 13.12L97.7183 13.06C97.5449 13.02 97.4583 12.94 97.4583 12.82C97.4583 12.6733 97.5583 12.6 97.7583 12.6H100.618C100.818 12.6 100.918 12.6733 100.918 12.82C100.918 12.9667 100.832 13.0467 100.658 13.06L100.398 13.1C100.052 13.1533 99.8116 13.2667 99.6783 13.44C99.5449 13.6 99.4783 13.8933 99.4783 14.32V26.54C99.4783 26.78 99.4316 26.9467 99.3383 27.04C99.2583 27.1333 99.1516 27.18 99.0183 27.18ZM106.517 31.3C106.104 31.3 105.771 31.1867 105.517 30.96C105.251 30.7467 105.117 30.46 105.117 30.1C105.117 29.8333 105.197 29.6133 105.357 29.44C105.504 29.2667 105.697 29.18 105.937 29.18C106.164 29.18 106.324 29.2467 106.417 29.38C106.511 29.5133 106.584 29.6667 106.637 29.84C106.704 30.0133 106.777 30.1667 106.857 30.3C106.937 30.4333 107.064 30.5 107.237 30.5C107.491 30.5 107.684 30.3533 107.817 30.06C107.951 29.7667 108.017 29.3533 108.017 28.82V13.92C108.017 13.64 107.971 13.4533 107.877 13.36C107.797 13.2667 107.617 13.1933 107.337 13.14L106.877 13.06C106.704 13.02 106.617 12.94 106.617 12.82C106.617 12.6733 106.717 12.6 106.917 12.6H110.537C110.737 12.6 110.837 12.6733 110.837 12.82C110.837 12.94 110.751 13.02 110.577 13.06L110.117 13.14C109.837 13.1933 109.651 13.2667 109.557 13.36C109.477 13.4533 109.437 13.64 109.437 13.92V26.12C109.437 27.72 109.177 28.98 108.657 29.9C108.137 30.8333 107.424 31.3 106.517 31.3ZM117.362 27.18C116.642 27.18 116.002 27.0133 115.442 26.68C114.895 26.3333 114.468 25.86 114.162 25.26C113.855 24.6467 113.702 23.9467 113.702 23.16V13.92C113.702 13.64 113.655 13.4533 113.562 13.36C113.482 13.2667 113.302 13.1933 113.022 13.14L112.562 13.06C112.388 13.02 112.302 12.94 112.302 12.82C112.302 12.6733 112.402 12.6 112.602 12.6H116.262C116.462 12.6 116.562 12.68 116.562 12.84C116.562 12.96 116.488 13.0333 116.342 13.06L115.802 13.14C115.535 13.18 115.355 13.2533 115.262 13.36C115.168 13.4667 115.122 13.66 115.122 13.94V23.18C115.122 24.1933 115.348 24.98 115.802 25.54C116.255 26.1 116.888 26.38 117.702 26.38C118.528 26.38 119.168 26.1 119.622 25.54C120.075 24.98 120.302 24.1933 120.302 23.18V14.34C120.302 13.62 120.075 13.22 119.622 13.14L119.082 13.06C118.935 13.0333 118.862 12.96 118.862 12.84C118.862 12.68 118.962 12.6 119.162 12.6H122.042C122.242 12.6 122.342 12.6733 122.342 12.82C122.342 12.94 122.255 13.02 122.082 13.06L121.622 13.14C121.168 13.22 120.942 13.6133 120.942 14.32V23.16C120.942 24.3733 120.615 25.3467 119.962 26.08C119.308 26.8133 118.442 27.18 117.362 27.18ZM131.964 27.18C131.751 27.18 131.571 27.02 131.424 26.7L126.004 14.94C125.964 14.8467 125.911 14.8067 125.844 14.82C125.791 14.8333 125.764 14.8933 125.764 15V25.28C125.764 25.6533 125.824 25.94 125.944 26.14C126.078 26.3267 126.311 26.4467 126.644 26.5L126.904 26.54C127.078 26.5533 127.164 26.6333 127.164 26.78C127.164 26.9267 127.064 27 126.864 27H124.004C123.804 27 123.704 26.9267 123.704 26.78C123.704 26.6333 123.791 26.5533 123.964 26.54L124.224 26.5C124.571 26.4467 124.811 26.3267 124.944 26.14C125.078 25.94 125.144 25.6533 125.144 25.28V13.92C125.144 13.64 125.098 13.4533 125.004 13.36C124.924 13.2667 124.731 13.1933 124.424 13.14L123.964 13.06C123.791 13.02 123.704 12.94 123.704 12.82C123.704 12.6733 123.804 12.6 124.004 12.6H126.144C126.478 12.6 126.711 12.7467 126.844 13.04L131.564 23.42C131.604 23.5 131.651 23.5333 131.704 23.52C131.771 23.5067 131.804 23.46 131.804 23.38V14.32C131.804 13.8933 131.731 13.6 131.584 13.44C131.438 13.2667 131.251 13.16 131.024 13.12L130.664 13.06C130.491 13.02 130.404 12.94 130.404 12.82C130.404 12.6733 130.504 12.6 130.704 12.6H133.564C133.764 12.6 133.864 12.6733 133.864 12.82C133.864 12.9667 133.778 13.0467 133.604 13.06L133.344 13.1C132.998 13.1533 132.758 13.2667 132.624 13.44C132.491 13.6 132.424 13.8933 132.424 14.32V26.54C132.424 26.78 132.378 26.9467 132.284 27.04C132.204 27.1333 132.098 27.18 131.964 27.18ZM140.571 27.18C139.491 27.18 138.577 26.8733 137.831 26.26C137.084 25.6467 136.517 24.7867 136.131 23.68C135.744 22.56 135.551 21.24 135.551 19.72C135.551 18.2533 135.777 16.9733 136.231 15.88C136.684 14.7733 137.304 13.92 138.091 13.32C138.891 12.7067 139.804 12.4 140.831 12.4C141.351 12.4 141.824 12.4533 142.251 12.56C142.677 12.6533 143.051 12.78 143.371 12.94C143.544 13.0333 143.631 13.1733 143.631 13.36L143.691 16.4C143.691 16.6267 143.611 16.74 143.451 16.74C143.304 16.74 143.211 16.6533 143.171 16.48L143.011 15.88C142.717 14.7733 142.384 14.0133 142.011 13.6C141.637 13.1867 141.124 12.98 140.471 12.98C139.497 12.98 138.691 13.56 138.051 14.72C137.424 15.8667 137.111 17.5333 137.111 19.72C137.111 21.9733 137.431 23.6933 138.071 24.88C138.724 26.0533 139.557 26.64 140.571 26.64C141.117 26.64 141.531 26.52 141.811 26.28C142.091 26.04 142.231 25.5933 142.231 24.94V20.56C142.231 20.28 142.184 20.0867 142.091 19.98C142.011 19.8733 141.831 19.8067 141.551 19.78L140.771 19.7C140.597 19.6867 140.511 19.6067 140.511 19.46C140.511 19.3133 140.611 19.24 140.811 19.24H144.471C144.671 19.24 144.771 19.32 144.771 19.48C144.771 19.6 144.697 19.6733 144.551 19.7L144.251 19.74C143.957 19.78 143.784 19.86 143.731 19.98C143.677 20.1 143.651 20.3 143.651 20.58V26C143.651 26.1467 143.611 26.2667 143.531 26.36C143.451 26.44 143.311 26.5333 143.111 26.64C142.791 26.8 142.424 26.9267 142.011 27.02C141.597 27.1267 141.117 27.18 140.571 27.18ZM146.387 27C146.187 27 146.087 26.9267 146.087 26.78C146.087 26.66 146.174 26.58 146.347 26.54L146.807 26.46C147.087 26.4067 147.267 26.3333 147.347 26.24C147.44 26.1467 147.487 25.96 147.487 25.68V13.92C147.487 13.64 147.44 13.4533 147.347 13.36C147.267 13.2667 147.087 13.1933 146.807 13.14L146.347 13.06C146.174 13.02 146.087 12.94 146.087 12.82C146.087 12.6733 146.187 12.6 146.387 12.6H150.047C150.247 12.6 150.347 12.68 150.347 12.84C150.347 12.96 150.274 13.0333 150.127 13.06L149.587 13.14C149.307 13.18 149.12 13.2533 149.027 13.36C148.947 13.4667 148.907 13.66 148.907 13.94V25.14C148.907 25.62 149.04 25.9667 149.307 26.18C149.587 26.3933 149.934 26.5 150.347 26.5C150.654 26.5 150.967 26.44 151.287 26.32C151.62 26.1867 151.92 25.9467 152.187 25.6C152.454 25.24 152.654 24.72 152.787 24.04L153.047 22.7C153.087 22.5267 153.187 22.44 153.347 22.44C153.534 22.44 153.614 22.5533 153.587 22.78L153.347 26.54C153.32 26.8467 153.154 27 152.847 27H146.387ZM155.449 27C155.249 27 155.149 26.9267 155.149 26.78C155.149 26.66 155.235 26.58 155.409 26.54L155.869 26.46C156.149 26.4067 156.329 26.3333 156.409 26.24C156.502 26.1467 156.549 25.96 156.549 25.68V13.92C156.549 13.64 156.502 13.4533 156.409 13.36C156.329 13.2667 156.149 13.1933 155.869 13.14L155.409 13.06C155.235 13.02 155.149 12.94 155.149 12.82C155.149 12.6733 155.249 12.6 155.449 12.6H162.169C162.475 12.6 162.642 12.7533 162.669 13.06L162.829 16.38C162.855 16.6067 162.769 16.72 162.569 16.72C162.409 16.72 162.315 16.6333 162.289 16.46L162.169 15.72C162.022 14.8133 161.722 14.1533 161.269 13.74C160.815 13.3133 160.189 13.1 159.389 13.1C158.855 13.1 158.482 13.18 158.269 13.34C158.069 13.4867 157.969 13.7533 157.969 14.14V18.96C157.969 19.1467 158.062 19.24 158.249 19.24H159.249C159.835 19.24 160.195 18.9267 160.329 18.3L160.529 17.3C160.582 17.1 160.695 17.0133 160.869 17.04C161.015 17.0667 161.089 17.18 161.089 17.38V21.88C161.089 22.08 161.015 22.1933 160.869 22.22C160.695 22.2467 160.582 22.16 160.529 21.96L160.329 20.98C160.235 20.5133 160.102 20.2067 159.929 20.06C159.769 19.9133 159.535 19.84 159.229 19.84H158.249C158.062 19.84 157.969 19.9333 157.969 20.12V25.14C157.969 25.62 158.089 25.9667 158.329 26.18C158.582 26.3933 159.035 26.5 159.689 26.5C160.355 26.5 160.922 26.3333 161.389 26C161.869 25.6533 162.202 25.0133 162.389 24.08L162.629 22.9C162.669 22.7267 162.769 22.64 162.929 22.64C163.115 22.64 163.195 22.7533 163.169 22.98L162.969 26.54C162.942 26.8467 162.775 27 162.469 27H155.449ZM174.55 27.18C173.563 27.18 172.696 26.8733 171.95 26.26C171.216 25.6467 170.643 24.7867 170.23 23.68C169.83 22.56 169.63 21.24 169.63 19.72C169.63 18.2533 169.85 16.9733 170.29 15.88C170.743 14.7733 171.343 13.92 172.09 13.32C172.85 12.7067 173.69 12.4 174.61 12.4C175.156 12.4 175.636 12.4533 176.05 12.56C176.463 12.6533 176.83 12.78 177.15 12.94C177.31 13.0333 177.39 13.1733 177.39 13.36L177.45 16.4C177.45 16.6267 177.37 16.74 177.21 16.74C177.063 16.74 176.97 16.6533 176.93 16.48L176.73 15.74C176.45 14.7 176.123 13.98 175.75 13.58C175.39 13.18 174.956 12.98 174.45 12.98C173.516 12.98 172.736 13.56 172.11 14.72C171.496 15.8667 171.19 17.5333 171.19 19.72C171.19 21.2133 171.343 22.4733 171.65 23.5C171.97 24.5267 172.376 25.3 172.87 25.82C173.376 26.34 173.91 26.6 174.47 26.6C175.07 26.6 175.55 26.4133 175.91 26.04C176.283 25.6667 176.596 24.9467 176.85 23.88L177.09 22.9C177.13 22.7 177.236 22.6133 177.41 22.64C177.556 22.6667 177.63 22.78 177.63 22.98L177.55 26.22C177.55 26.4067 177.463 26.5467 177.29 26.64C176.97 26.8 176.59 26.9267 176.15 27.02C175.723 27.1267 175.19 27.18 174.55 27.18ZM184.405 27.18C183.765 27.18 183.165 26.9933 182.605 26.62C182.045 26.2333 181.551 25.7067 181.125 25.04C180.711 24.3733 180.385 23.5933 180.145 22.7C179.918 21.7933 179.805 20.82 179.805 19.78C179.805 18.74 179.918 17.7733 180.145 16.88C180.385 15.9867 180.711 15.2067 181.125 14.54C181.551 13.86 182.045 13.3333 182.605 12.96C183.165 12.5867 183.765 12.4 184.405 12.4C185.045 12.4 185.638 12.5867 186.185 12.96C186.745 13.3333 187.238 13.86 187.665 14.54C188.091 15.2067 188.418 15.9867 188.645 16.88C188.885 17.7733 189.005 18.74 189.005 19.78C189.005 20.82 188.885 21.7933 188.645 22.7C188.418 23.5933 188.091 24.3733 187.665 25.04C187.238 25.7067 186.745 26.2333 186.185 26.62C185.638 26.9933 185.045 27.18 184.405 27.18ZM184.405 26.64C185.351 26.64 186.091 26.0733 186.625 24.94C187.158 23.8067 187.425 22.0867 187.425 19.78C187.425 17.4733 187.158 15.76 186.625 14.64C186.091 13.5067 185.351 12.94 184.405 12.94C183.471 12.94 182.731 13.5067 182.185 14.64C181.651 15.76 181.385 17.4733 181.385 19.78C181.385 22.0867 181.651 23.8067 182.185 24.94C182.731 26.0733 183.471 26.64 184.405 26.64ZM192.101 27.18C191.808 27.18 191.554 27.0867 191.341 26.9C191.141 26.7 191.041 26.44 191.041 26.12C191.041 25.8133 191.141 25.5667 191.341 25.38C191.554 25.18 191.808 25.08 192.101 25.08C192.368 25.08 192.608 25.18 192.821 25.38C193.034 25.5667 193.141 25.8133 193.141 26.12C193.141 26.44 193.034 26.7 192.821 26.9C192.608 27.0867 192.368 27.18 192.101 27.18Z" fill="white"></path></svg>